<svg xmlns="http://www.w3.org/2000/svg" width="682.572" height="1165.792" viewBox="0 0 682.572 1165.792">
  <g id="Grupo_13" data-name="Grupo 13" transform="translate(2435.5 3027.792)">
    <path id="Trazado_27" data-name="Trazado 27" d="M930-290.957l22.347,52.169a535.806,535.806,0,0,1,56.528,19.852c29.028,12.2,59.586,28.935,59.586,28.935s-6.2,312.56-1.006,469.291,21.775,157.633,21.775,157.633-63.787,22.84-115.858,58.343S840,522.309,840,522.309l-19.65-43.333-20.658,44.816s-55.972-.669-100.876-14.324-78.74-40.3-78.74-40.3,6.794-143.151,0-262.663S592.9-8.876,592.9-8.876L604.735-192.9,700-233.137v-34.32Z" transform="translate(-2947.001 -2385.792)" fill="#674b3f"/>
    <circle id="Elipse_20" data-name="Elipse 20" cx="165" cy="165" r="165" transform="translate(-2301.001 -3027.792)" fill="#f1d8ba"/>
    <path id="Trazado_28" data-name="Trazado 28" d="M605-193s-41.75,15.75-65,44-28,69-28,69V2l13,130.349V186s3.3,19.429,12.8,31.429S563,234,563,234h59V101s-6.427-51.34-10.677-73.34S605,13,605,13a33.717,33.717,0,0,0,8.774-8.1A91.307,91.307,0,0,0,622-9s.576-67.545-3.674-113.545S605-193,605-193Z" transform="translate(-2947.001 -2385.792)" fill="#eaeaea" stroke="#c4c4c4" stroke-width="1"/>
    <circle id="Elipse_21" data-name="Elipse 21" cx="11" cy="11" r="11" transform="translate(-2132.001 -2434.792)" fill="#fff"/>
    <circle id="Elipse_22" data-name="Elipse 22" cx="11" cy="11" r="11" transform="translate(-2133.001 -2390.792)" fill="#fff"/>
    <circle id="Elipse_23" data-name="Elipse 23" cx="11" cy="11" r="11" transform="translate(-2132.001 -2349.792)" fill="#fff"/>
    <path id="Trazado_29" data-name="Trazado 29" d="M1025.876,359.582s-8.751-1.92-14.266-7.259-7.792-14.1-7.792-14.1,5.272-28.709,10-46.215,11.278-22.924,11.278-22.924l-36.9,4.9s-3.555,17.929-7.846,29.422-9.317,16.55-9.317,16.55-5.63,3.47-19.492,3.31-35.956-3.952-35.956-3.952a41.9,41.9,0,0,0-5.235-18.727c-5.339-9.716-16.059-19.492-16.059-19.492l-17.163.613s9.721,14.731,13.485,23.047,1.513,8.957,1.513,8.957-14.984-4.81-26.276-13.125a86.136,86.136,0,0,1-18.388-18.879H821.718a96.584,96.584,0,0,0,7.723,22.066c5.731,11.615,15.2,24.4,15.2,24.4A174.707,174.707,0,0,0,863.4,347.542a169.39,169.39,0,0,0,21.725,15.541s4.2,3.852,13.656,9.454,24.158,12.954,24.158,12.954l102.938,33.962s1.67-15.386,1.67-30.354A295.225,295.225,0,0,0,1025.876,359.582Z" transform="translate(-2947.001 -2385.792)" fill="#f1d8ba"/>
    <path id="Trazado_30" data-name="Trazado 30" d="M1062.308-192.308s-19.7-1.775-22.662,111.834,17.277,87.4,17.277,87.4l10.769,254.615s-.31,39.6-10.887,60.947a45.327,45.327,0,0,1-31.421,24.438s-3.819,20.025-3.819,38.487a181.32,181.32,0,0,0,3.819,35.359,13.828,13.828,0,0,0,5.608,4.286,14.321,14.321,0,0,0,7.137,0s26.12-18.352,47.156-30.623,11.316-5.439,34.774-21.9,26.26-16.193,41.665-39.565a198.663,198.663,0,0,0,22.408-46.917s11.931-149.689,8.945-242.208-20.888-127.87-20.888-127.87-18.683-39.793-46.154-66.864S1062.308-192.308,1062.308-192.308Z" transform="translate(-2947.001 -2385.792)" fill="#eaeaea" stroke="#c4c4c4" stroke-width="1"/>
    <path id="Trazado_31" data-name="Trazado 31" d="M-571-2524.093s-7.641,103.241-4.968,257.491,15.663,359.509,15.663,359.509" transform="translate(-1567.001)" fill="none" stroke="#57453d" stroke-width="4"/>
    <g id="Rectángulo_1" data-name="Rectángulo 1" transform="matrix(0.998, -0.07, 0.07, 0.998, -2044.446, -2350.52)" fill="#363636" stroke="#534b4b" stroke-width="1">
      <rect width="36" height="11" stroke="none"/>
      <rect x="0.5" y="0.5" width="35" height="10" fill="none"/>
    </g>
    <g id="Elipse_2" data-name="Elipse 2" transform="translate(-2046.001 -2384.792)" fill="#363636" stroke="#534b4b" stroke-width="1">
      <circle cx="18" cy="18" r="18" stroke="none"/>
      <circle cx="18" cy="18" r="17.5" fill="none"/>
    </g>
    <path id="Trazado_1" data-name="Trazado 1" d="M690,249.231s-6.346,1.538-8.462,5.385,0,10,0,10,91.539,27.693,267.693,13.077,230-53.846,230-53.846l14.615-9.231s-.962-6.346-4.615-8.462-10,0-10,0S1168.464,43.846,936.156,42.308,690,249.231,690,249.231" transform="translate(-2947.001 -2385.792)" fill="rgba(188,144,144,0.36)"/>
    <path id="Trazado_18" data-name="Trazado 18" d="M-201.143-2179.834s6.309-2.153,9.982,0,4.711,8.612,4.711,8.612-32.067,44.8-222.518,64.176-289.436-14.369-289.436-14.369-1.692-5.839,0-9.585,6.766-5.4,6.766-5.4,143.34,22.888,265.964,12.029S-201.143-2179.834-201.143-2179.834Z" transform="translate(-1567.001)" fill="#363636"/>
    <path id="Trazado_32" data-name="Trazado 32" d="M700.771-266.924l76.923,12.308,29.231,43.846,34.615-46.923L930-290.77s-7.692-13.077-123.077-3.846S700.771-266.924,700.771-266.924Z" transform="translate(-2947.001 -2385.792)" fill="#363636"/>
    <path id="Trazado_4" data-name="Trazado 4" d="M735.971-218.831l44.816,12.255L802.5-173.314l-25.91,38.864Z" transform="translate(-2944.001 -2385.792)" fill="#fff"/>
    <path id="Trazado_5" data-name="Trazado 5" d="M805.109-214.876l-43.229,5.735-25.91,35.827,33.362,41.456Z" transform="translate(-2852.798 -2315.16) rotate(-5)" fill="#fff"/>
    <ellipse id="Elipse_18" data-name="Elipse 18" cx="19.5" cy="19" rx="19.5" ry="19" transform="translate(-2158.001 -2572)" fill="#f6f6f6"/>
    <path id="Trazado_33" data-name="Trazado 33" d="M-547.8-2588.438s27.3-6.083,55.358-14.3,59.312-20.075,59.312-20.075" transform="translate(-1567.001)" fill="none" stroke="#57453d" stroke-width="4"/>
    <path id="Trazado_34" data-name="Trazado 34" d="M-675.762-2616.847l83.037,25.7" transform="translate(-1567.001)" fill="none" stroke="#57453d" stroke-width="4"/>
    <text id="AT" transform="translate(-2165.925 -2244.448) rotate(-3)" fill="#333440" font-size="70" font-family="SegoeUI-Bold, Segoe UI" font-weight="700"><tspan x="0" y="0">AT</tspan></text>
    <text id="YOUR" transform="translate(-2059.268 -2250.9) rotate(-3)" fill="#333440" font-size="70" font-family="SegoeUI-Bold, Segoe UI" font-weight="700"><tspan x="0" y="0">YOUR</tspan></text>
    <text id="SERVICE" transform="matrix(0.998, -0.07, 0.07, 0.998, -2208.909, -2141.647)" fill="#333440" font-size="100" font-family="SegoeUI-Bold, Segoe UI" font-weight="700"><tspan x="0" y="0">SERVICE</tspan></text>
    <path id="Trazado_35" data-name="Trazado 35" d="M-2053.4-2071.754s4.769,1.53,9.9,2.7,10.619,1.98,10.619,1.98" fill="none" stroke="#dcc4a8" stroke-width="1"/>
    <path id="Trazado_36" data-name="Trazado 36" d="M-2041.7-2044.038s-31.137-9.809-48.235-25.017a119.016,119.016,0,0,1-25.557-32.4" transform="translate(1 1)" fill="none" stroke="#dcc4a8" stroke-width="3"/>
    <path id="Trazado_37" data-name="Trazado 37" d="M-2123.048-2099.4s6.05,18.455,23.037,36.107,44.815,32.216,44.815,32.216" transform="translate(0 -1)" fill="none" stroke="#dcc4a8" stroke-width="3"/>
  </g>
</svg>
